<?xml version="1.0" encoding="UTF-8" standalone="no" ?>
<!DOCTYPE svg PUBLIC "-//W3C//DTD SVG 1.1//EN" "http://www.w3.org/Graphics/SVG/1.1/DTD/svg11.dtd">
<svg xmlns="http://www.w3.org/2000/svg" xmlns:xlink="http://www.w3.org/1999/xlink" version="1.1" width="1080" height="1080" viewBox="0 0 1080 1080" xml:space="preserve">
<desc>Created with Fabric.js 5.2.4</desc>
<defs>
</defs>
<rect x="0" y="0" width="100%" height="100%" fill="transparent"></rect>
<g transform="matrix(1 0 0 1 540 540)" id="2c67bb82-0eda-4a97-b9bb-607514f211aa"  >
<rect style="stroke: none; stroke-width: 1; stroke-dasharray: none; stroke-linecap: butt; stroke-dashoffset: 0; stroke-linejoin: miter; stroke-miterlimit: 4; fill: rgb(255,255,255); fill-rule: nonzero; opacity: 1; visibility: hidden;" vector-effect="non-scaling-stroke"  x="-540" y="-540" rx="0" ry="0" width="1080" height="1080" />
</g>
<g transform="matrix(1 0 0 1 540 540)" id="250c667c-29fd-486c-af66-ff3c9aec96ff"  >
</g>
<g transform="matrix(NaN NaN NaN NaN 0 0)"  >
<g style=""   >
</g>
</g>
<g transform="matrix(NaN NaN NaN NaN 0 0)"  >
<g style=""   >
</g>
</g>
<g transform="matrix(NaN NaN NaN NaN 0 0)"  >
<g style=""   >
</g>
</g>
<g transform="matrix(NaN NaN NaN NaN 0 0)"  >
<g style=""   >
</g>
</g>
<g transform="matrix(NaN NaN NaN NaN 0 0)"  >
<g style=""   >
</g>
</g>
<g transform="matrix(NaN NaN NaN NaN 0 0)"  >
<g style=""   >
</g>
</g>
<g transform="matrix(19.5 0 0 19.5 540 474.89)" id="d64ac9bc-247a-445e-a6c8-f318dd7e5584"  >
<path style="stroke: rgb(0,0,0); stroke-width: 0; stroke-dasharray: none; stroke-linecap: butt; stroke-dashoffset: 0; stroke-linejoin: miter; stroke-miterlimit: 4; fill: rgb(80,227,194); fill-rule: nonzero; opacity: 1;" vector-effect="non-scaling-stroke"  transform=" translate(-16, -15.99)" d="M 16.114 -0.011 C 9.555 -0.011 4 5.576 4 12.193000000000001 C 4 19.123 10.439 26.21 14.77 31.191000000000003 C 14.786999999999999 31.211000000000002 15.487 31.988000000000003 16.349 31.988000000000003 L 16.425 31.988000000000003 C 17.288 31.988000000000003 17.983 31.211000000000002 18 31.191000000000003 C 22.064 26.519000000000002 28 18.814 28 12.193000000000001 C 28 5.575000000000001 23.667 -0.010999999999999233 16.114 -0.010999999999999233 z M 16.515 29.849 C 16.48 29.884 16.429000000000002 29.923000000000002 16.384 29.956 C 16.338 29.924 16.288 29.884 16.251 29.849 L 15.728000000000002 29.247 C 11.622000000000002 24.537 5.999000000000002 18.086 5.999000000000002 12.192 C 5.999000000000002 6.66 10.631000000000002 1.987 16.113000000000003 1.987 C 22.942000000000004 1.987 25.999000000000002 7.112 25.999000000000002 12.192 C 25.999000000000002 16.666 22.807000000000002 22.608 16.514000000000003 29.849 z M 16.035 6.044 C 12.722 6.044 10.035 8.73 10.035 12.044 C 10.035 15.358 12.722 18.044 16.035 18.044 C 19.348 18.044 22.035 15.357000000000001 22.035 12.044 C 22.035 8.731 19.349 6.0440000000000005 16.035 6.0440000000000005 z M 16.035 16.044 C 13.829 16.044 11.989 14.206 11.989 12 C 11.989 9.794 13.783000000000001 8 15.989 8 C 18.196 8 19.989 9.794 19.989 12 C 19.990000000000002 14.206 18.242 16.044 16.035 16.044 z" stroke-linecap="round" />
</g>
<g transform="matrix(NaN NaN NaN NaN 0 0)"  >
<g style=""   >
</g>
</g>
<g transform="matrix(NaN NaN NaN NaN 0 0)"  >
<g style=""   >
</g>
</g>
<g transform="matrix(NaN NaN NaN NaN 0 0)"  >
<g style=""   >
</g>
</g>
</svg>