<?xml version="1.0" encoding="UTF-8" standalone="no" ?>
<!DOCTYPE svg PUBLIC "-//W3C//DTD SVG 1.1//EN" "http://www.w3.org/Graphics/SVG/1.1/DTD/svg11.dtd">
<svg xmlns="http://www.w3.org/2000/svg" xmlns:xlink="http://www.w3.org/1999/xlink" version="1.1" width="1080" height="1080" viewBox="0 0 1080 1080" xml:space="preserve">
<desc>Created with Fabric.js 5.2.4</desc>
<defs>
</defs>
<rect x="0" y="0" width="100%" height="100%" fill="transparent"></rect>
<g transform="matrix(1 0 0 1 540 540)" id="2c67bb82-0eda-4a97-b9bb-607514f211aa"  >
<rect style="stroke: none; stroke-width: 1; stroke-dasharray: none; stroke-linecap: butt; stroke-dashoffset: 0; stroke-linejoin: miter; stroke-miterlimit: 4; fill: rgb(255,255,255); fill-rule: nonzero; opacity: 1; visibility: hidden;" vector-effect="non-scaling-stroke"  x="-540" y="-540" rx="0" ry="0" width="1080" height="1080" />
</g>
<g transform="matrix(1 0 0 1 540 540)" id="250c667c-29fd-486c-af66-ff3c9aec96ff"  >
</g>
<g transform="matrix(1.33 0 0 1.33 557.69 557.76)" id="9270f513-b907-47dd-b8a6-2a4421b71733"  >
<path style="stroke: rgb(0,0,0); stroke-width: 0; stroke-dasharray: none; stroke-linecap: butt; stroke-dashoffset: 0; stroke-linejoin: miter; stroke-miterlimit: 4; fill: rgb(80,227,194); fill-rule: nonzero; opacity: 1;" vector-effect="non-scaling-stroke"  transform=" translate(-255.99, -255.99)" d="M 511.686 411.188 C 510.726 396.361 503.57899999999995 382.70799999999997 491.846 373.64099999999996 L 423.579 320.308 C 404.806 305.58799999999997 378.459 305.695 359.899 320.521 L 344.646 332.574 C 332.593 342.067 315.313 341.107 304.433 330.22700000000003 L 182.299 207.775 C 171.419 196.895 170.459 179.508 179.952 167.455 L 192.005 152.202 C 206.725 133.535 206.832 107.189 192.218 88.41499999999999 L 138.99099999999999 19.934999999999988 C 121.49799999999999 -2.5720000000000134 89.07099999999998 -6.625000000000011 66.56399999999998 10.867999999999988 C 64.85699999999999 12.254999999999988 63.15099999999998 13.640999999999988 61.65699999999998 15.240999999999989 L 18.032 58.975 C -0.6350000000000016 77.748 -45.968 154.548 155.739 356.682 C 283.952 485.002 361.92600000000004 511.98900000000003 404.80600000000004 511.98900000000003 C 430.29900000000004 511.98900000000003 445.12600000000003 502.60200000000003 453.01900000000006 494.70900000000006 L 496.6460000000001 450.97600000000006 C 507.099 440.415 512.539 426.015 511.686 411.188 z M 483.952 433.162 C 483.205 434.12199999999996 482.352 435.082 481.499 435.82899999999995 L 437.872 479.56199999999995 C 432.85900000000004 484.57499999999993 423.045 490.655 404.805 490.655 C 373.01800000000003 490.655 300.378 471.34799999999996 170.88500000000002 341.53499999999997 C 21.552 191.882 3.312 103.882 33.179 73.908 L 76.80600000000001 30.175000000000004 C 82.45900000000002 24.522000000000006 90.13900000000001 21.322000000000003 98.24600000000001 21.322000000000003 C 98.88600000000001 21.322000000000003 99.52600000000001 21.322000000000003 100.16600000000001 21.429000000000002 C 108.80600000000001 21.962000000000003 116.91300000000001 26.229000000000003 122.13900000000001 33.056000000000004 L 175.366 101.536 C 184.00600000000003 112.629 183.899 128.096 175.25900000000001 139.083 L 163.20600000000002 154.23 C 146.99300000000002 174.81699999999998 148.699 204.257 167.25900000000001 222.817 L 289.392 345.27 C 307.84499999999997 363.83 337.392 365.537 357.872 349.323 L 373.125 337.27 C 384.005 328.63 399.472 328.52299999999997 410.45799999999997 337.16299999999995 L 478.72499999999997 390.496 C 491.952 400.842 494.299 419.935 483.952 433.162 z" stroke-linecap="round" />
</g>
<g transform="matrix(NaN NaN NaN NaN 0 0)"  >
<g style=""   >
</g>
</g>
<g transform="matrix(NaN NaN NaN NaN 0 0)"  >
<g style=""   >
</g>
</g>
<g transform="matrix(NaN NaN NaN NaN 0 0)"  >
<g style=""   >
</g>
</g>
<g transform="matrix(NaN NaN NaN NaN 0 0)"  >
<g style=""   >
</g>
</g>
</svg>